<svg xmlns="http://www.w3.org/2000/svg" xmlns:xlink="http://www.w3.org/1999/xlink" viewBox="0 0 1920 1080"><defs><style>.cls-1{fill:none;}.cls-2{isolation:isolate;}.cls-3{clip-path:url(#clip-path);}.cls-4{fill:#fff;}.cls-5,.cls-6{opacity:0.45;}.cls-5{fill:url(#linear-gradient);}.cls-6{fill:url(#linear-gradient-2);}.cls-7{fill:url(#linear-gradient-3);}.cls-8{fill:url(#linear-gradient-4);}.cls-9{fill:#ffd7cf;}.cls-10{mix-blend-mode:multiply;fill:url(#linear-gradient-5);}.cls-11{fill:#502c16;}.cls-12{fill:url(#linear-gradient-6);}.cls-13{fill:url(#linear-gradient-7);}.cls-14{fill:url(#linear-gradient-8);}.cls-15{fill:url(#linear-gradient-9);}.cls-16{fill:url(#linear-gradient-10);}.cls-17{fill:url(#linear-gradient-11);}.cls-18{fill:url(#linear-gradient-12);}.cls-19{fill:url(#linear-gradient-13);}.cls-20{fill:url(#linear-gradient-14);}.cls-21{fill:#ffd6cf;}.cls-22{fill:url(#linear-gradient-15);}.cls-23{fill:url(#linear-gradient-16);}.cls-24{fill:url(#linear-gradient-17);}.cls-25{fill:url(#linear-gradient-18);}.cls-26{fill:url(#linear-gradient-19);}.cls-27{fill:url(#linear-gradient-20);}.cls-28{fill:url(#linear-gradient-21);}.cls-29{fill:url(#linear-gradient-22);}.cls-30{fill:url(#linear-gradient-23);}.cls-31{fill:url(#linear-gradient-24);}.cls-32{fill:url(#linear-gradient-25);}.cls-33{fill:url(#linear-gradient-26);}.cls-34{fill:url(#linear-gradient-27);}.cls-35{fill:url(#linear-gradient-28);}.cls-36{fill:url(#linear-gradient-29);}.cls-37{fill:url(#linear-gradient-30);}.cls-38{fill:url(#linear-gradient-31);}.cls-39{fill:url(#linear-gradient-32);}</style><clipPath id="clip-path"><rect class="cls-1" y="-230" width="1920" height="1494.12"/></clipPath><linearGradient id="linear-gradient" x1="392.83" y1="1187.27" x2="392.83" y2="781.52" gradientUnits="userSpaceOnUse"><stop offset="0" stop-color="#fff"/><stop offset="0.15" stop-color="#f1f6fb"/><stop offset="0.42" stop-color="#deeaf7"/><stop offset="0.7" stop-color="#d3e3f4"/><stop offset="1" stop-color="#cfe1f3"/></linearGradient><linearGradient id="linear-gradient-2" x1="1441.89" y1="1168.44" x2="1441.89" y2="706.72" xlink:href="#linear-gradient"/><linearGradient id="linear-gradient-3" x1="751.52" y1="618.4" x2="828.42" y2="643.61" gradientUnits="userSpaceOnUse"><stop offset="0" stop-color="#343a44"/><stop offset="0.3" stop-color="#232d3e"/><stop offset="0.64" stop-color="#182439"/><stop offset="1" stop-color="#142138"/></linearGradient><linearGradient id="linear-gradient-4" x1="797.92" y1="628.88" x2="914.06" y2="628.88" xlink:href="#linear-gradient-3"/><linearGradient id="linear-gradient-5" x1="757.46" y1="395.07" x2="725.42" y2="348.25" gradientUnits="userSpaceOnUse"><stop offset="0" stop-color="#fff" stop-opacity="0"/><stop offset="0.24" stop-color="#f7f3f4" stop-opacity="0.22"/><stop offset="0.77" stop-color="#e1d6da" stop-opacity="0.76"/><stop offset="0.99" stop-color="#d8c9ce"/></linearGradient><linearGradient id="linear-gradient-6" x1="707.31" y1="436.68" x2="824.55" y2="436.68" xlink:href="#linear-gradient"/><linearGradient id="linear-gradient-7" x1="570.04" y1="497.87" x2="570.04" y2="528.7" xlink:href="#linear-gradient"/><linearGradient id="linear-gradient-8" x1="580.81" y1="567.23" x2="717.22" y2="567.23" gradientTransform="translate(265.58 -306.44) rotate(22.97)" gradientUnits="userSpaceOnUse"><stop offset="0" stop-color="#89d5ff"/><stop offset="0.07" stop-color="#7acefc"/><stop offset="0.25" stop-color="#58bdf4"/><stop offset="0.43" stop-color="#3db0ee"/><stop offset="0.61" stop-color="#2aa7ea"/><stop offset="0.8" stop-color="#1fa2e8"/><stop offset="1" stop-color="#1ba0e7"/></linearGradient><linearGradient id="linear-gradient-9" x1="751.43" y1="434.82" x2="878.13" y2="434.82" gradientTransform="matrix(1, 0, 0, 1, 0, 0)" xlink:href="#linear-gradient-8"/><linearGradient id="linear-gradient-10" x1="698.48" y1="459.31" x2="792.87" y2="459.31" gradientTransform="matrix(1, 0, 0, 1, 0, 0)" xlink:href="#linear-gradient-8"/><linearGradient id="linear-gradient-11" x1="853.39" y1="785" x2="915.69" y2="785" xlink:href="#linear-gradient-3"/><linearGradient id="linear-gradient-12" x1="786.89" y1="795.79" x2="854.03" y2="795.79" gradientTransform="matrix(0.98, 0.17, -0.17, 0.98, 109.53, -133.23)" xlink:href="#linear-gradient-3"/><linearGradient id="linear-gradient-13" x1="896.57" y1="490.86" x2="924.98" y2="490.86" xlink:href="#linear-gradient"/><linearGradient id="linear-gradient-14" x1="765.91" y1="425.21" x2="921.63" y2="425.21" gradientTransform="matrix(1, 0, 0, 1, 0, 0)" xlink:href="#linear-gradient-8"/><linearGradient id="linear-gradient-15" x1="1170.13" y1="110.55" x2="1198.54" y2="110.55" gradientTransform="matrix(-0.38, 0.93, 0.93, 0.38, 616.48, -436.59)" xlink:href="#linear-gradient"/><linearGradient id="linear-gradient-16" x1="238.4" y1="578.24" x2="268.35" y2="599.32" gradientUnits="userSpaceOnUse"><stop offset="0" stop-color="#ff9cb0"/><stop offset="0.06" stop-color="#fd8ea4"/><stop offset="0.24" stop-color="#fa6c89"/><stop offset="0.42" stop-color="#f75173"/><stop offset="0.61" stop-color="#f53e64"/><stop offset="0.8" stop-color="#f3335b"/><stop offset="1" stop-color="#f32f58"/></linearGradient><linearGradient id="linear-gradient-17" x1="303.43" y1="463.14" x2="371.82" y2="463.14" xlink:href="#linear-gradient-3"/><linearGradient id="linear-gradient-18" x1="455.03" y1="851.81" x2="455.03" y2="889.15" xlink:href="#linear-gradient-3"/><linearGradient id="linear-gradient-19" x1="392.58" y1="746.15" x2="293.46" y2="777.22" xlink:href="#linear-gradient-3"/><linearGradient id="linear-gradient-20" x1="206.66" y1="930.1" x2="206.66" y2="984.69" xlink:href="#linear-gradient-3"/><linearGradient id="linear-gradient-21" x1="316.22" y1="674.51" x2="212.66" y2="825.41" xlink:href="#linear-gradient-3"/><linearGradient id="linear-gradient-22" x1="331.48" y1="494.85" x2="323.64" y2="511.08" xlink:href="#linear-gradient"/><linearGradient id="linear-gradient-23" x1="359.47" y1="490.4" x2="281.81" y2="651.26" xlink:href="#linear-gradient-16"/><linearGradient id="linear-gradient-24" x1="509.79" y1="502.83" x2="497.94" y2="527.39" xlink:href="#linear-gradient"/><linearGradient id="linear-gradient-25" x1="453.41" y1="696.23" x2="377.8" y2="852.85" gradientTransform="translate(300.67 -303.42) rotate(25.01)" xlink:href="#linear-gradient-16"/><linearGradient id="linear-gradient-26" x1="501.45" y1="811.28" x2="501.45" y2="1174.28" gradientUnits="userSpaceOnUse"><stop offset="0" stop-color="#c6d6e7"/><stop offset="1" stop-color="#8fafcf"/></linearGradient><linearGradient id="linear-gradient-27" x1="561.46" y1="755.06" x2="561.46" y2="1118.07" gradientUnits="userSpaceOnUse"><stop offset="0" stop-color="#eef4fb"/><stop offset="0.31" stop-color="#e3edf8"/><stop offset="1" stop-color="#cfe1f3"/></linearGradient><linearGradient id="linear-gradient-28" x1="796.25" y1="697.26" x2="796.25" y2="1197.27" xlink:href="#linear-gradient-26"/><linearGradient id="linear-gradient-29" x1="856.26" y1="655.84" x2="856.26" y2="1155.84" xlink:href="#linear-gradient-27"/><linearGradient id="linear-gradient-30" x1="215.09" y1="933.79" x2="215.09" y2="1149.59" xlink:href="#linear-gradient-26"/><linearGradient id="linear-gradient-31" x1="275.1" y1="898.28" x2="275.1" y2="1114.08" xlink:href="#linear-gradient-27"/><linearGradient id="linear-gradient-32" x1="380.01" y1="456.8" x2="614.97" y2="-41.04" gradientTransform="matrix(1, 0, 0, 1, 0, 0)" xlink:href="#linear-gradient-8"/></defs><title>アートボード 1</title><g class="cls-2"><g id="レイヤー_1" data-name="レイヤー 1"><g class="cls-3"><rect class="cls-4" y="-230" width="1920" height="1494.12"/><path class="cls-5" d="M-158.62,818.46v505.28H944.29v-529h-4.06v-38H931v-2.85h-3.76v-5.15h-6.9V728.26H915.9l-2.44-45.65h-2l-2.44,45.65h-4.42v20.43h-1.41V736.75L852.87,895.3l-48.1.73v148.52L784.28,831.73H770.49v5.7h-6V787.75h-4.35L757.8,720h-1.91l-2.38,67.78h-4.34v49.68H725.53v12.45l-5.44-7.39V707.27H685.3V670.35h-8.63v36.92H658.19V944.94l-47-21-3.46-279.88H568.72V587.3H548.91V775.85H538.79v-28h-19v-24.7H509.64v24.7h-7.16V722.68h-5.81v-2.61H494.3v-4.68H490V680.27h-9.86v35.12h-4.33v4.68h-2.37v2.61H467.6v25.18h-6.31v46H443v79.84h-11v21.46h-3V858h-3.64l-2-32.46h-1.6l-2,32.46h-3.64v37.13h-5.67V996.38H395.43V816.19l-2.65-8.72v-8.93h-2.71l-5.22-95.44-9.5.28V655.12H361.63V703.8l-14.25.44-7.27,90-13.65,99.56H312.19V811.29h-2.78l-1.53-30.69h-1.23l-1.53,30.69h-2.78v4.9H289.23V727.7h-1.45v88.49h-7.63V756.7h-41v59.49h-6.87v91.7h-11.4V790h-4.4V767.19L187.23,759v251.83H178.7V780.31H162.64V759.47h-8.53v20.84H131.17V1020H111.49V771.46H91.29v-45H88.86l-1.35-38.07H86.44L85.11,726.5H82.67v45H41.93V943.78H13.2V706.23H-14.2V646.15L-92.67,666l.32,103.67h-33.44v48.84ZM913.53,730.83h2.09v16.43h-2.09Zm-4.18,0h2.09v16.43h-2.09ZM757.87,794.08h2v43.35h-2Zm-4.1,0h2.05v43.35h-2.05Zm-72.21-90.54h1.15v3.73h-1.15Zm-2.3,0h1.15v3.73h-1.15ZM485.7,682.61H487v31.48H485.7Zm-2.63,0h1.31v31.48h-1.31ZM423.53,860.49h1.72v33.28h-1.72Zm-3.44,0h1.72v33.28h-1.72ZM369.4,691.57h1.83v11.94l-1.83.06Zm-3.66,0h1.83v12l-1.83.06ZM307.92,813.64h1.32v2.55h-1.32Zm-2.63,0h1.32v2.55h-1.32Zm-217.74-54h1.16v11.78H87.55Zm-2.3,0H86.4v11.78H85.25Z"/><path class="cls-6" d="M1929,918.69v19.57H1906.6V582.46l-47.15,11.7v198h-9.71v19.64h-18.28V1029h-9.71V791.77l-142.21,7.67v21.47h-5V932h-13V845.6h-7.82v-56h-46.7v56h-8.68V762.25h-1.64V845.6h-14.92V841h-3.17l-1.74-28.92h-1.4L1573.76,841h-3.17v77.7h-16.24l-12.92-93.79-8.27-84.76-42.91-.41V693.87h-15.62v45.47l-10.8-.28L1457.88,829h-3.08v8.41l-3,8.21v169.75h-17.21V920h-6.46V885H1424l-2.28-30.58h-1.82L1417.59,885h-4.14v35h-3.36V899.76h-12.48V824.54h-20.77v-43.3h-7.19V757.51H1363v-2.45h-2.69v-4.41h-4.94V717.56H1344.2v33.09h-4.93v4.41h-2.7v2.45H1330v23.73h-8.14V758H1310.3v23.28h-21.66V807.6h-11.52V630h-22.53v53.48h-44.45l-3.94,263.66-53.43,19.77V743h-21V708.22h-9.82V743h-39.59V870.38l-6.2,7V865.61h-26.89v-46.8h-4.94L1041.59,755h-2.17l-2.72,63.85h-4.94v46.8H1025v-5.37h-15.69L986,1060.73V920.82l-54-.68v403.6H1951.76v-405Zm-889.65-53.08H1037V824.77h2.33Zm4.66,0h-2.33V824.77H1044ZM1126.18,743h-1.31v-3.52h1.31Zm2.62,0h-1.31v-3.52h1.31Zm220.26,6.42h-1.5V719.77h1.5Zm3,0h-1.5V719.77h1.5Zm67.75,169.27h-2V887.33h2Zm3.91,0h-2V887.33h2Zm57.69-179.18-2.08-.06V728.21h2.08Zm4.16.1-2.08-.05V728.21h2.08Zm89.89,106H1574v-2.4h1.49Zm3,0H1577v-2.4h1.49Z"/><path class="cls-7" d="M762.15,535.48c-3.14,13.81-15,96.76-18.53,108.11s2.2,35,9.26,57.68,20.3,75.22,20.3,75.22,27.42,6.2,37.82,0c0,0-4.78-36.46-10.9-75.22s-11.79-39.72-4.23-64.3,21.79-65.18,29.33-82.23-.65-63.38-.65-63.38-53.32,22.5-58.62,27.73S763.92,527.71,762.15,535.48Z"/><path class="cls-8" d="M797.94,499c-.49,8.17,11.48,46.88,16.53,54s24.58,68.89,30.88,96,15.76,47.9,20.18,65.55,15.12,61.15,15.12,61.15,33.41,1.89,33.41,0-3.78-23.32-7.56-56.1-18.28-62.41-20.17-90.14,0-95.82-15.76-132.38S797.94,499,797.94,499Z"/><path class="cls-9" d="M721.26,337.55s12.94,15.32,20.34,19.64,38.2,0,38.2,0-10.48,30.8-24.65,39.43-40.66,6.16-40.66,6.16,4.31-11.62,3.69-21.56S701,364,701,364Z"/><path class="cls-10" d="M721.26,337.55s12.94,15.32,20.34,19.64,38.2,0,38.2,0-10.48,30.8-24.65,39.43-40.66,6.16-40.66,6.16,4.31-11.62,3.69-21.56S701,364,701,364Z"/><path class="cls-9" d="M670.74,337.55s6.78,13.09,8.32,15.24,4,7.09,6.16,10.17,13.86,12.32,18.18,13.86,10.78-.92,14.17-5.54,7.39-14.18,9.85-19.72,0-20.33,0-20.33-.3-11.4-18.17-12.33-27.42,0-27.42,0Z"/><path class="cls-11" d="M670.74,337.55c2,1.95,4.31,2.92,11.09-.16s6.16-14.09,19.1-17.25c4.67-1.15,6.78,1.39,8,8.71l1.23,7.31,3.7,4.31s-1.23-9.86,3.08-14.79,11.71,9,4.31,11.87,8.63,8.46,8.63,8.46,0-3.69,4.31-15.4-4-28.32-12.94-32c-12.53-5.2-13.55-3.08-13.55-3.08s-15-7.68-30.4,7.27C663.75,315.91,664.86,331.78,670.74,337.55Z"/><path class="cls-12" d="M714.24,383.15l1.26-4s14.5,10.72,17.65,10.72c0,0,14.18-28.47,11-34.14a55.71,55.71,0,0,0,14.5-.72c10.46-1.7,15.13,0,15.13,0s14.81,62,25.53,81.51S822,473.08,822,473.08l2.52,18.28s-7.56,14.18-29,21l-21.44,6.77s5.68-30.25-13.86-55.47-53-64.29-53-64.29Z"/><path class="cls-9" d="M502.36,507.11c3.33-.92,7-1.66,9.8-4.06s6.16-5,9.64-4.44,7.37,2.51,6.63,4.21-8.87,3.74-10.35,6.14-4.62,6.11-4.62,9.8S510.9,530,510.9,530a19.05,19.05,0,0,0-10.39-1.34C495,529.67,502.36,507.11,502.36,507.11Z"/><path class="cls-9" d="M509.16,509.15c5.78-1.48,18.16-2.22,21.31,0s10.91,10.91,12,13.5,4.44,1.89,2.77,4.27-3.33,8.3-5.73,10.89a7.22,7.22,0,0,1-8.95,1.81c-3.44-1.62-9.91-2.73-13.61-5.32s-8-4.81-11.65-4.26a23.66,23.66,0,0,1-6.87,0S502,514,501.07,512.11,509.16,509.15,509.16,509.15Z"/><path class="cls-9" d="M547.85,500.81c-4.85.32-20,.73-24.41,0s-8.14,4.82-11.46,7.78,1.85,4.95,5.17,4.7,7.77-5.3,10.73-4.44,6.66,7.08,10,11.18,3.69,7.1,7.39,6.89,5.55-4.35,13-7.83A169.5,169.5,0,0,0,575.59,509l-9.21-14.69S555.28,500.33,547.85,500.81Z"/><path class="cls-13" d="M564.49,497.87c-5.91,1.11-16.64,2.94-16.64,2.94s3,12.14,3.7,18.28a56.94,56.94,0,0,0,1.85,9.61s13.68-3.09,20.71-7.16,18.12-16.94,18.12-16.94Z"/><path class="cls-14" d="M698.48,403.11c-5.69,6.15-27.44,30.81-44.63,47.15s-30.16,20.88-54.22,31c-29.77,12.54-44.16,16.61-44.16,16.61s7,19.51,10.13,29c0,0,51.38-11.5,76.29-21.82S727,442.67,727,442.67Z"/><path class="cls-15" d="M751.43,354.49s3.78,56.5,2.84,68.79S769.4,454.48,777,471.5s28.37,47.54,36.88,48.36,48.22-.77,64.29-15.26c0,0-14.18-23.34-30.25-53-16.27-30-26.48-49.07-34-68.5s-30.26-33.54-30.26-33.54S765.91,349.61,751.43,354.49Z"/><path class="cls-16" d="M714.24,383.15a197.71,197.71,0,0,0,21.43,28.15C748.91,425.8,755.4,431,755.4,431s19.35,24.47,25.66,33.92,11.59,16.45,11.47,24.3,3,23.14-7.69,38.74c0,0-.63,6.93-22.69,7.56a327.87,327.87,0,0,0,3.15-34c.61-20.18-8.7-19.54-21.37-32.14s-26.54-25.22-34.73-35.93-10.72-30.26-10.72-30.26S702.26,389,714.24,383.15Z"/><path class="cls-17" d="M884.71,762.41a40,40,0,0,1-16.85,24.26c-11.87,7.92-17.7,16-12.65,20.9,0,0,59.29.56,60.27-6.85,1.59-12-6.33-38.31-6.33-38.31Z"/><path class="cls-18" d="M783.21,769.11c-7.35,2.9-9.06,8.81-21.44,20.88s-20.84,12.6-16.72,18.35,49.38.68,49.38.68,20-2.93,19.5-15a41.34,41.34,0,0,0-6.64-20.69Z"/><path class="cls-9" d="M900.67,497.34c3.76,5.43,6.68,11.27,7.51,15.86s2.93,9.33,4.18,10.72,7.09,2.22,7.09,2.22,1.26,4.6,4.18,5,2.5-.41,5.84,0,3.76-1.67,7.1-2.92,2.92-1.11,5-4.31.83-4.75-2.92-9.61a123,123,0,0,0-13.36-14.88c-5.85-5.57-11.77-17.5-11.77-17.5Z"/><path class="cls-19" d="M896.57,490.52l7.51,15.86s13.38,2.6,20.9-10l-15.55-21.28Z"/><path class="cls-20" d="M783.58,349.61s28.36,6.54,51.06,25.45,42.55,40.66,49.17,47.27,37.82,66.51,37.82,66.51-9.46,4.41-23.64,12c0,0-17-19.55-37.82-53.77-9.43-15.51-49.23-33.85-71.42-43.93S753.32,357.26,783.58,349.61Z"/><path class="cls-21" d="M342.58,446.44c4.62-2.31,28-5.08,29.24-1.39a51,51,0,0,1,1.93,12c0,2.08.46,5.78,1.61,7.62s4.39,3.7,3.7,5.31-3.24,2.54-3.24,4.39,0,2.54-.69,3.46.69,1.85.23,3.23,1.39,6,.93,8.54-4.39,5.08-12.47,6.24-11.54,7.15-15.93,13.62-10.26,26.31-10.26,26.31l-34.19-19.39s10.06-14.54,11.21-21.7,3.93-20.31,3.93-20.31Z"/><path class="cls-9" d="M279.74,694.4c3.6,5.54,7.9,10.45,11.83,13s7.52,6.24,8.34,7.92-.63,7.41-.63,7.41,3.77,2.9,3.05,5.76-1.34,2.16-2.22,5.41-3,2.85-5.39,5.46-2.14,2.28-5.89,3-4.71-1-7.79-6.34a122.7,122.7,0,0,1-8.7-18c-2.94-7.51-11.73-17.52-11.73-17.52Z"/><path class="cls-22" d="M275,688l11.83,13s-2.66,13.36-17.16,15.55l-13.8-22.46Z"/><path class="cls-23" d="M297.46,509.58s-17.32,9.27-37.15,31.16-36.43,48.87-38,58.1c-6.55,37.76,39.13,112.22,39.13,112.22s7.91-6.81,20.63-16.63c0,0-12.47-48.58-10.71-74.43,1.24-18.11,25.19-49.67,45.76-62.76S328.49,512.93,297.46,509.58Z"/><path class="cls-24" d="M325.66,433.36c-16-.62-21.55,4.92-22.17,21.54s3.62,17.47,6.08,22.47c6,12.14,4.32,20.14,4.32,20.14s5,2.94,15.46,1.71,12.31-8,16-11.08a48.32,48.32,0,0,0,6.16-6.15s-6.16-3.7-7.39-9.85,3.7-9,7.39-4.8l3.69,4.18s3.7.14,2.46-7,0-9,3.08-12.69,11.08-6.77,11.08-6.77-6.77-15.39-20.31-17.85S325.66,433.36,325.66,433.36Z"/><path class="cls-25" d="M420.44,857.92c-2.29,7.42,2.77,21.46,4.44,27.18s7.76,3.89,22.74,3.33,36.06-1.11,41.06-2.22-3.23-14.25-9.44-16.09c-10.17-3-21.76-8-24.41-13.31s-11.65-5-11.65-5Z"/><path class="cls-26" d="M259,652.7c-12.65,11.3-13.24,34-5.67,54.84s15.9,24.59,39,25.54,77.78,30.89,81.32,38.16c16.61,34.17,49,98,49,98s15.13,6.62,34-9.45c0,0-11.8-40.82-23.43-76-14.44-43.71-21.31-51.13-35.72-65.25-8.78-8.61-59.08-46-79.57-59.18S273.83,639.46,259,652.7Z"/><path class="cls-27" d="M192,930.1S187.25,932,182.05,941s-13.71,11.35-4.26,19.86,22.7,22.22,27,22.7,28.55,2.36,33.28,0-.94-8.09-7.39-14.66c-5.23-5.34-13.42-15.13-13.89-18s.76-14.66.76-14.66Z"/><path class="cls-28" d="M228.44,667.83c-7.9,14.8-1.58,34,4.09,66.19s6.55,61,8.44,76.16-5.87,17.31-24.83,54.19a516.69,516.69,0,0,0-29.36,69s11.54,17.38,29.41,22.11c0,0,35.84-54.27,51-77.91A159.18,159.18,0,0,0,290.8,815c3.91-24.88,13.34-87.29,12.64-131.74S271.31,651.75,259,652.7,238.52,648.91,228.44,667.83Z"/><path class="cls-29" d="M303.44,504.6s3.64-7.47,4-8.58,6.39-.93,17.75,0,22.69,13.44,22.69,13.44l-16,9.86Z"/><path class="cls-30" d="M320.43,500.61c9.17.48,24,8.82,27.11,12s16.13,14.84,12.95,43.51c-2.42,21.82-15.13,59.06-17.54,72.78-2.69,15.34-8.65,39.58-16.85,44.62s-9.83,10.9-37.19,10.09c-20.57-.61-60.47-15.76-60.47-15.76s5.31-15.65,11.27-34.68c16-51,48.81-116,58.49-130.84C300.26,499.14,312.79,500.2,320.43,500.61Z"/><path class="cls-31" d="M495.33,507.73,506,505.05a21.41,21.41,0,0,1,4.29,18.6c-2.55,11.28-2.55,6.84-2.55,6.84l-10.39,3.1Z"/><path class="cls-32" d="M332,548c7.42,2.94,10.24,3.36,39.87,4s34.16,6.12,54,3.93c24.66-2.72,75.13-17.34,75.13-17.34s4.55-21.65-2.48-33.42c0,0-67.42,15.57-86.69,12.15S357.64,508.07,344,505.9s-28.74.7-27.72,17.67C316.92,533.64,322,544.07,332,548Z"/><path class="cls-9" d="M510.9,535.77c5,3.24,12.17,6.11,15.13,6.11s7-4.45,8.14-6.11-1.3-2.77-2.78-2.95-1.29-4.35-3.88-4.12-1.71-1.94-4.83-1.78-1.83-1.5-4.79-1.68-4.73,2.77-7,4.8S508.5,534.21,510.9,535.77Z"/><rect class="cls-33" x="412.13" y="885.83" width="178.64" height="227.56"/><rect class="cls-34" x="472.14" y="885.83" width="178.64" height="227.56"/><rect class="cls-35" x="706.93" y="799.94" width="178.64" height="313.44"/><rect class="cls-36" x="766.94" y="799.94" width="178.64" height="313.44"/><rect class="cls-37" x="125.77" y="978.11" width="178.64" height="135.28"/><rect class="cls-38" x="185.78" y="978.11" width="178.64" height="135.28"/><polygon class="cls-39" points="101.33 438.58 245.26 316.48 275.86 364.78 431.37 257.87 474.76 316.22 609.34 207.03 652.86 253.35 772.07 168.42 792.72 191.02 821.18 111.83 734.92 118.8 754.14 146.44 649.92 226.24 604.16 168.61 478.15 291.26 425.08 217.2 278.93 350.85 240.97 289.51 101.33 438.58"/></g></g></g></svg>